# xmcd CD database file
#
# Track frame offsets:
#	150
#	34590
#	71790
#	108990
#	149940
#	196440
#	218565
#	267090
#	292140
#
# Disc length: 4462 seconds
#
# Revision: 0
# Processed by: cddbd v1.5.2PL0 Copyright (c) Steve Scherf et al.
# Submitted via: CDex 1.70beta3
#
DISCID=95116c09
DTITLE=Orquesta Libre - plays Duke
DYEAR=2013
DGENRE=Jazz
TTITLE0=Take the A Train
TTITLE1=Caravan
TTITLE2=Creole Love Call
TTITLE3=I Got it Bad (And That Ain't Good)
TTITLE4=African Flower (Petite Fleur Africane)
TTITLE5=Money Jangle
TTITLE6=The Mooche
TTITLE7=Rockin' in Rhythm
TTITLE8=Mood Indigo
EXTD=YEAR: 2013
EXTT0=
EXTT1=
EXTT2=
EXTT3=
EXTT4=
EXTT5=
EXTT6=
EXTT7=
EXTT8=
PLAYORDER=
